<mxfile host="app.diagrams.net" agent="Mozilla/5.0 (Windows NT 10.0; Win64; x64) AppleWebKit/537.36 (KHTML, like Gecko) Chrome/127.0.0.0 Safari/537.36 Edg/127.0.0.0" version="24.7.6">
  <diagram id="C5RBs43oDa-KdzZeNtuy" name="Sơ đồ lớp tổng quan">
    <mxGraphModel dx="643" dy="784" grid="1" gridSize="10" guides="1" tooltips="1" connect="1" arrows="1" fold="1" page="1" pageScale="1" pageWidth="827" pageHeight="1169" math="0" shadow="0">
      <root>
        <mxCell id="WIyWlLk6GJQsqaUBKTNV-0" />
        <mxCell id="WIyWlLk6GJQsqaUBKTNV-1" parent="WIyWlLk6GJQsqaUBKTNV-0" />
        <mxCell id="mL500cjNEKnCKwMB__xe-5" value="" style="rounded=0;orthogonalLoop=1;jettySize=auto;html=1;fontSize=12;startSize=8;endSize=8;endArrow=oval;endFill=1;" edge="1" parent="WIyWlLk6GJQsqaUBKTNV-1" source="mL500cjNEKnCKwMB__xe-0">
          <mxGeometry relative="1" as="geometry">
            <mxPoint x="310" y="230" as="targetPoint" />
          </mxGeometry>
        </mxCell>
        <mxCell id="mL500cjNEKnCKwMB__xe-0" value="daihoctaichinhmarketing" style="rounded=0;whiteSpace=wrap;html=1;" vertex="1" parent="WIyWlLk6GJQsqaUBKTNV-1">
          <mxGeometry x="50" y="200" width="160" height="60" as="geometry" />
        </mxCell>
        <mxCell id="mL500cjNEKnCKwMB__xe-1" value="doituong" style="rounded=0;whiteSpace=wrap;html=1;" vertex="1" parent="WIyWlLk6GJQsqaUBKTNV-1">
          <mxGeometry x="320" y="200" width="160" height="60" as="geometry" />
        </mxCell>
        <mxCell id="mL500cjNEKnCKwMB__xe-6" style="edgeStyle=orthogonalEdgeStyle;rounded=0;orthogonalLoop=1;jettySize=auto;html=1;entryX=0.5;entryY=1;entryDx=0;entryDy=0;fontSize=12;startSize=8;endSize=8;" edge="1" parent="WIyWlLk6GJQsqaUBKTNV-1" source="mL500cjNEKnCKwMB__xe-2" target="mL500cjNEKnCKwMB__xe-1">
          <mxGeometry relative="1" as="geometry">
            <Array as="points">
              <mxPoint x="120" y="380" />
              <mxPoint x="400" y="380" />
            </Array>
          </mxGeometry>
        </mxCell>
        <mxCell id="mL500cjNEKnCKwMB__xe-2" value="sinhvien" style="rounded=0;whiteSpace=wrap;html=1;" vertex="1" parent="WIyWlLk6GJQsqaUBKTNV-1">
          <mxGeometry x="50" y="480" width="160" height="60" as="geometry" />
        </mxCell>
        <mxCell id="mL500cjNEKnCKwMB__xe-8" style="edgeStyle=none;curved=1;rounded=0;orthogonalLoop=1;jettySize=auto;html=1;entryX=0.5;entryY=1;entryDx=0;entryDy=0;fontSize=12;startSize=8;endSize=8;" edge="1" parent="WIyWlLk6GJQsqaUBKTNV-1" source="mL500cjNEKnCKwMB__xe-3" target="mL500cjNEKnCKwMB__xe-1">
          <mxGeometry relative="1" as="geometry" />
        </mxCell>
        <mxCell id="mL500cjNEKnCKwMB__xe-3" value="giangvien" style="rounded=0;whiteSpace=wrap;html=1;" vertex="1" parent="WIyWlLk6GJQsqaUBKTNV-1">
          <mxGeometry x="320" y="480" width="160" height="60" as="geometry" />
        </mxCell>
        <mxCell id="mL500cjNEKnCKwMB__xe-9" style="edgeStyle=orthogonalEdgeStyle;rounded=0;orthogonalLoop=1;jettySize=auto;html=1;entryX=0.5;entryY=1;entryDx=0;entryDy=0;fontSize=12;startSize=8;endSize=8;" edge="1" parent="WIyWlLk6GJQsqaUBKTNV-1" source="mL500cjNEKnCKwMB__xe-4" target="mL500cjNEKnCKwMB__xe-1">
          <mxGeometry relative="1" as="geometry">
            <Array as="points">
              <mxPoint x="667" y="380" />
              <mxPoint x="400" y="380" />
            </Array>
          </mxGeometry>
        </mxCell>
        <mxCell id="mL500cjNEKnCKwMB__xe-4" value="doanhnghiep" style="rounded=0;whiteSpace=wrap;html=1;" vertex="1" parent="WIyWlLk6GJQsqaUBKTNV-1">
          <mxGeometry x="587" y="480" width="160" height="60" as="geometry" />
        </mxCell>
        <mxCell id="mL500cjNEKnCKwMB__xe-10" value="public" style="text;html=1;align=center;verticalAlign=middle;resizable=0;points=[];autosize=1;strokeColor=none;fillColor=none;fontSize=16;" vertex="1" parent="WIyWlLk6GJQsqaUBKTNV-1">
          <mxGeometry x="300" y="341" width="70" height="30" as="geometry" />
        </mxCell>
      </root>
    </mxGraphModel>
  </diagram>
</mxfile>
